<?xml version="1.0" encoding="utf-8"?>
<!-- Generator: Adobe Illustrator 16.0.0, SVG Export Plug-In . SVG Version: 6.00 Build 0)  -->
<!DOCTYPE svg PUBLIC "-//W3C//DTD SVG 1.1//EN" "http://www.w3.org/Graphics/SVG/1.1/DTD/svg11.dtd">
<svg version="1.1" id="Laag_1" xmlns="http://www.w3.org/2000/svg" xmlns:xlink="http://www.w3.org/1999/xlink" x="0px" y="0px"
	 viewBox="0 0 179.998 54.693" enable-background="new 0 0 179.998 54.693"
	 xml:space="preserve">
<g>
	<path d="M28.84,28.775h-6.367V7.487h6.367V28.775z M28.84,5.224h-6.367V0.392h6.367V5.224z"/>
	<g>
		<path d="M39.805,5.26h-6.367V0.427h6.367V5.26z M39.805,28.349c0,4.949-0.922,8.286-7.903,8.286H30.33v-4.834h0.844
			c2.224,0,2.264-1.688,2.264-3.221V7.522h6.367V28.349z"/>
		<path d="M66.542,4.794h0.73V0H66.35c-3.106,0-8.13,0.538-8.13,6.521v1.112h-6.225V6.789c0-1.801,1.418-1.995,1.955-1.995h0.729V0
			h-0.922c-3.106,0-8.13,0.538-8.13,6.521v1.112h-2.379v4.833h2.379V28.92h6.368V12.466h6.225V28.92h6.367V12.466h2.685V7.633
			h-2.685V6.789C64.587,4.988,66.006,4.794,66.542,4.794z"/>
	</g>
	<path d="M77.114,28.909h-6.367V7.621h6.367V28.909z M77.114,5.359h-6.367V0.527h6.367V5.359z"/>
	<g>
		<path d="M81.25,7.622h5.945v2.264h0.08c0.651-1.037,1.993-2.992,5.789-2.992c2.031,0,4.295,0.844,5.447,1.841
			c1.148,0.998,2.457,2.684,2.457,6.865v13.31h-6.372V17.287c0-1.494,0-4.41-3.336-4.41c-3.644,0-3.644,3.145-3.644,4.449v11.584
			H81.25V7.622z"/>
		<path d="M114.948,23.653c3.068,0,5.217-2.224,5.217-5.292c0-3.414-2.336-5.485-5.176-5.485c-2.725,0-5.141,2.186-5.141,5.292
			C109.849,21.584,112.302,23.653,114.948,23.653 M126.533,26.339c0,3.184-0.23,5.217-1.266,7.018
			c-1.65,2.688-5.526,5.025-10.778,5.025c-7.402,0-10.203-4.449-10.623-7.479h7.361c0.92,2.11,3.299,2.11,3.721,2.11
			c0.809,0,5.182-0.078,5.182-5.792v-0.653h-0.078c-0.652,1.228-2.496,3.03-5.832,3.03c-5.791,0-10.738-4.373-10.738-11.2
			c0-7.288,5.213-11.468,10.738-11.468c2.379,0,4.719,0.843,5.869,2.687h0.076V7.621h6.368V26.339z"/>
		<path d="M144.869,15.907c-0.27-1.265-1.531-3.644-4.83-3.644c-3.301,0-4.566,2.379-4.834,3.644H144.869z M150.51,22.235
			c-1.039,2.378-2.531,4.218-4.336,5.447c-1.764,1.265-3.875,1.917-6.061,1.917c-6.096,0-11.277-4.948-11.277-11.277
			c0-5.946,4.68-11.43,11.162-11.43s11.24,5.14,11.24,11.621c0,0.844-0.076,1.19-0.156,1.687h-15.953
			c0.381,2.533,2.492,4.028,4.984,4.028c1.957,0,2.992-0.881,3.875-1.994H150.51z"/>
		<path d="M153.662,7.622h5.984v2.264h0.076c0.537-1.037,1.648-2.992,5.33-2.992v6.405c-2.953,0.078-5.025,0.69-5.025,3.913v11.698
			h-6.365V7.622z"/>
	</g>
	<rect y="0.393" width="18.645" height="6.044"/>
	<rect y="11.561" width="12.288" height="6.044"/>
	<rect y="22.729" width="18.645" height="6.046"/>
	<g>
		<path d="M175.475,4.918c0,0.62-0.404,1.256-1.418,1.256h-1.504V3.662h1.521C175.088,3.662,175.475,4.299,175.475,4.918
			 M176.285,4.935c0-1.088-0.742-2.074-2.211-2.074h-2.313v6.575h0.791V6.975h1.504h0.137l1.113,2.461h0.91l-1.215-2.628
			C175.846,6.491,176.285,5.756,176.285,4.935 M179.189,6.191c0,3.011-2.365,5.438-5.387,5.438c-3.02,0-5.385-2.427-5.385-5.438
			c0-3.013,2.365-5.457,5.385-5.457C176.824,0.734,179.189,3.178,179.189,6.191 M179.998,6.191c0-3.413-2.752-6.191-6.195-6.191
			c-3.441,0-6.191,2.778-6.191,6.191c0,3.412,2.75,6.189,6.191,6.189C177.246,12.38,179.998,9.603,179.998,6.191"/>
		<path fill="#777373" d="M153.393,46.367c0-1.013,0.711-2.197,2.229-2.197c1.453,0,2.213,1.138,2.213,2.197
			c0,0.916-0.602,2.26-2.244,2.26C154.357,48.627,153.393,47.726,153.393,46.367 M160.313,39.1h-2.621v3.665
			c-0.285-0.284-1.027-1.042-2.576-1.042c-2.229,0-4.344,1.689-4.344,4.66c0,2.639,1.736,4.691,4.391,4.691
			c1.771,0,2.402-0.869,2.625-1.231h0.031v0.946h2.494V39.1z M146.98,50.789h2.621V39.1h-2.621V50.789z M141.229,50.789h2.621
			v-4.817c0-1.328,0.852-1.581,2.07-1.612v-2.637c-1.518,0-1.977,0.805-2.197,1.23h-0.031v-0.931h-2.463V50.789z M133.248,46.398
			c0-1.281,0.965-2.213,2.102-2.213c1.139,0,2.102,0.932,2.102,2.213c0,1.28-0.963,2.213-2.102,2.213
			C134.213,48.611,133.248,47.679,133.248,46.398 M130.627,46.398c0,2.149,1.531,4.66,4.723,4.66c3.193,0,4.723-2.511,4.723-4.66
			c0-2.15-1.529-4.66-4.723-4.66C132.158,41.738,130.627,44.248,130.627,46.398 M117.562,42.022l2.686,8.767h2.433l1.469-5.67h0.031
			l1.469,5.67h2.434l2.686-8.767h-2.701l-1.311,5.45h-0.033l-1.453-5.45h-2.211l-1.437,5.45h-0.033l-1.311-5.45H117.562z
			 M107.554,45.436c0.109-0.521,0.631-1.503,1.99-1.503c1.357,0,1.881,0.981,1.99,1.503H107.554z M111.171,48.041
			c-0.363,0.459-0.789,0.822-1.596,0.822c-1.027,0-1.896-0.617-2.055-1.66h6.574c0.031-0.205,0.063-0.348,0.063-0.694
			c0-2.671-1.959-4.786-4.629-4.786s-4.596,2.257-4.596,4.707c0,2.607,2.131,4.645,4.643,4.645c0.9,0,1.77-0.269,2.496-0.789
			c0.742-0.506,1.359-1.264,1.785-2.244H111.171z M95.735,50.789h2.621v-4.865c0-0.428,0-1.738,1.471-1.738
			c1.408,0,1.408,1.406,1.408,1.832v4.771h2.621v-4.897c0-1.563-0.08-2.338-0.822-3.206c-0.553-0.663-1.547-0.963-2.385-0.963
			c-0.932,0-1.817,0.316-2.26,1.105h-0.033V39.1h-2.621V50.789z M93.649,39.1h-2.621v2.923h-1.295v1.989h1.295v6.777h2.621v-6.777
			h1.264v-1.989h-1.264V39.1z M78.982,46.367c0-1.281,0.996-2.182,2.118-2.182c1.17,0,2.134,0.854,2.134,2.26
			c0,1.266-0.885,2.182-2.15,2.182C79.994,48.627,78.982,47.773,78.982,46.367 M85.855,42.022h-2.621v0.821h-0.031
			c-0.475-0.758-1.439-1.105-2.419-1.105c-2.276,0-4.423,1.721-4.423,4.723c0,2.814,2.037,4.613,4.423,4.613
			c1.375,0,2.134-0.742,2.403-1.248h0.031v0.27c0,2.355-1.802,2.387-2.134,2.387c-0.173,0-1.154,0-1.533-0.871h-3.032
			c0.174,1.25,1.326,3.082,4.376,3.082c2.165,0,3.76-0.964,4.439-2.068c0.426-0.744,0.521-1.582,0.521-2.893V42.022z M67.103,50.789
			h2.62v-4.771c0-0.537,0-1.832,1.502-1.832c1.376,0,1.376,1.2,1.376,1.816v4.787h2.621v-5.482c0-1.721-0.537-2.416-1.011-2.826
			c-0.473-0.41-1.405-0.758-2.242-0.758c-1.566,0-2.119,0.805-2.388,1.23H69.55v-0.931h-2.447V50.789z M65.521,39.1H62.9v1.988
			h2.621V39.1z M65.521,42.022H62.9v8.767h2.621V42.022z M60.812,39.1h-2.62v2.923h-1.296v1.989h1.296v6.777h2.62v-6.777h1.264
			v-1.989h-1.264V39.1z M48.996,46.43c0-0.996,0.664-2.26,2.165-2.26c1.486,0,2.213,1.17,2.213,2.229
			c0,0.854-0.553,2.244-2.197,2.244C49.597,48.643,48.996,47.252,48.996,46.43 M55.995,42.022h-2.621v0.931h-0.031
			c-0.316-0.537-1.122-1.23-2.561-1.23c-2.339,0-4.407,1.8-4.407,4.676c0,2.514,1.626,4.691,4.407,4.691
			c1.028,0,2.118-0.395,2.561-1.247h0.031v0.946h2.621V42.022z M41.351,50.789h2.621v-4.817c0-1.328,0.853-1.581,2.069-1.612v-2.637
			c-1.516,0-1.975,0.805-2.196,1.23h-0.031v-0.931h-2.463V50.789z M33.37,46.398c0-1.281,0.964-2.213,2.102-2.213
			c1.139,0,2.103,0.932,2.103,2.213c0,1.28-0.964,2.213-2.103,2.213C34.334,48.611,33.37,47.679,33.37,46.398 M30.749,46.398
			c0,2.149,1.532,4.66,4.723,4.66c3.192,0,4.724-2.511,4.724-4.66c0-2.15-1.532-4.66-4.724-4.66
			C32.281,41.738,30.749,44.248,30.749,46.398 M27.366,47.457c-0.284,0.537-0.806,1.17-1.896,1.17c-1.248,0-2.085-0.948-2.085-2.229
			c0-1.265,0.837-2.292,2.085-2.229c1.09,0,1.612,0.632,1.896,1.232h2.655c-0.443-2.148-2.323-3.68-4.646-3.68
			c-2.622,0-4.627,2.084-4.627,4.66c0,2.607,2.037,4.691,4.691,4.691c2.37,0,4.123-1.627,4.597-3.617H27.366z M13.431,45.436
			c0.11-0.521,0.632-1.503,1.99-1.503c1.359,0,1.881,0.981,1.991,1.503H13.431z M17.049,48.041c-0.364,0.459-0.79,0.822-1.596,0.822
			c-1.027,0-1.896-0.617-2.054-1.66h6.573c0.031-0.205,0.063-0.348,0.063-0.694c0-2.671-1.959-4.786-4.629-4.786
			s-4.596,2.257-4.596,4.707c0,2.607,2.131,4.645,4.643,4.645c0.901,0,1.77-0.269,2.496-0.789c0.743-0.506,1.359-1.264,1.786-2.244
			H17.049z M2.813,41.721h1.296c1.328,0,1.929,0.553,2.277,1.074c0.427,0.664,0.569,1.502,0.569,2.166
			c0,1.658-0.633,3.207-2.861,3.207H2.813V41.721z M-0.171,50.789H3.92c4.44,0,6.019-2.684,6.019-5.877
			c0-1.279-0.268-2.527-1.074-3.633C7.35,39.1,5.01,39.1,3.698,39.1h-3.869V50.789z"/>
	</g>
</g>
</svg>
